<svg version="1.0" xmlns="http://www.w3.org/2000/svg"
 width="512.000000pt" height="512.000000pt" viewBox="0 0 512.000000 512.000000"
 preserveAspectRatio="xMidYMid meet">
<metadata>
Created by potrace 1.16, written by Peter Selinger 2001-2019
</metadata>
<g transform="translate(0.000000,512.000000) scale(0.100000,-0.100000)"
fill="white" stroke="none">
<path d="M3959 3839 c-40 -17 -185 -172 -955 -1015 -499 -547 -910 -994 -914
-994 -3 0 -206 214 -450 476 -492 529 -483 521 -592 511 -71 -6 -126 -39 -165
-98 -36 -55 -43 -139 -16 -200 24 -53 1069 -1168 1135 -1211 34 -23 53 -28
103 -28 71 0 110 21 171 90 22 25 475 523 1006 1107 954 1048 966 1062 978
1116 19 96 -16 195 -86 238 -53 32 -154 36 -215 8z"/>
</g>
</svg>
