<svg version="1.0" xmlns="http://www.w3.org/2000/svg"
 width="100%" height="100%" viewBox="0 0 512.000000 512.000000"
 preserveAspectRatio="xMidYMid meet">
<g transform="translate(0.000000,512.000000) scale(0.100000,-0.100000)"
fill="#000000" stroke="none">
<path d="M578 2771 c-53 -17 -98 -53 -126 -99 -22 -38 -27 -59 -27 -112 0 -60
5 -73 59 -175 32 -60 90 -159 129 -218 l70 -109 -165 -166 c-91 -92 -173 -181
-182 -199 -21 -42 -21 -144 0 -186 56 -111 187 -156 297 -101 17 9 100 84 184
167 l152 151 56 -50 c100 -87 191 -159 264 -209 39 -27 71 -52 71 -56 0 -5
-43 -95 -96 -201 l-96 -193 4 -67 c3 -55 9 -75 34 -110 54 -77 151 -113 240
-88 77 22 113 67 220 273 77 151 100 187 113 182 114 -45 273 -87 411 -110 58
-9 115 -19 127 -21 22 -4 22 -6 25 -252 l3 -247 28 -47 c40 -69 102 -103 187
-103 71 1 108 15 154 61 59 60 61 67 64 336 3 246 3 248 25 252 12 3 58 10
102 16 101 14 255 52 365 90 47 16 88 26 92 22 3 -4 48 -88 98 -187 101 -198
138 -243 214 -265 89 -25 186 11 240 88 25 35 31 55 34 110 l4 67 -96 193
c-53 106 -96 196 -96 201 0 4 33 30 72 57 63 42 131 97 286 228 l34 29 151
-151 c84 -82 166 -157 183 -166 108 -53 240 -11 294 95 25 48 27 146 4 192 -9
18 -91 107 -182 199 l-165 166 70 109 c39 59 97 158 129 218 54 102 59 115 59
175 0 129 -86 215 -216 215 -55 0 -73 -5 -114 -30 -42 -26 -56 -45 -108 -140
-116 -215 -226 -367 -384 -528 -172 -176 -326 -288 -538 -393 -243 -119 -455
-172 -720 -181 -512 -17 -985 182 -1368 574 -158 161 -268 313 -384 528 -50
93 -67 114 -105 138 -49 31 -132 43 -180 28z"/>
</g>
</svg>
