<svg version="1.0" xmlns="http://www.w3.org/2000/svg"
 width="100%" height="100%" viewBox="0 0 512.000000 512.000000"
 preserveAspectRatio="xMidYMid meet">
<g transform="translate(0.000000,512.000000) scale(0.100000,-0.100000)"
fill="#000000" stroke="none">
<path d="M2316 5104 c-164 -30 -352 -105 -486 -196 -57 -38 -1043 -833 -1192
-960 -109 -94 -205 -249 -250 -405 -20 -68 -23 -100 -23 -248 1 -159 3 -175
29 -255 52 -156 114 -258 222 -360 69 -66 1007 -830 1159 -945 151 -114 366
-206 559 -240 115 -20 337 -20 452 0 259 45 465 151 719 369 112 96 137 135
137 215 0 123 -80 204 -202 204 -71 0 -94 -13 -231 -128 -128 -109 -215 -164
-321 -205 -257 -100 -562 -74 -795 67 -101 61 -1199 958 -1238 1011 -54 73
-77 144 -83 248 -7 144 35 258 126 347 41 39 1050 860 1142 929 64 48 200 109
298 135 137 35 307 35 443 0 160 -42 248 -92 473 -274 639 -514 974 -792 1008
-838 78 -103 106 -227 82 -364 -19 -105 -12 -157 26 -210 76 -105 240 -110
323 -11 34 40 56 113 66 225 26 269 -67 527 -257 710 -88 85 -1138 936 -1222
990 -140 91 -317 161 -484 190 -112 19 -371 19 -480 -1z"/>
<path d="M2321 3624 c-164 -28 -354 -103 -491 -196 -119 -80 -280 -220 -303
-263 -25 -48 -28 -136 -4 -180 20 -40 75 -91 110 -104 39 -15 121 -14 160 3
18 7 78 51 134 97 218 181 395 251 633 251 172 0 328 -44 476 -134 91 -54
1181 -945 1224 -999 66 -83 84 -146 84 -279 0 -130 -16 -187 -79 -272 -22 -30
-232 -207 -587 -496 -304 -247 -575 -465 -603 -484 -236 -168 -564 -206 -846
-97 -42 16 -103 46 -137 67 -34 20 -317 244 -629 497 -614 498 -634 517 -674
643 -17 55 -21 90 -20 197 1 129 1 132 -28 177 -67 105 -219 124 -315 39 -34
-30 -56 -89 -66 -177 -27 -242 59 -505 223 -680 65 -70 1123 -936 1237 -1012
129 -87 275 -151 445 -194 79 -20 115 -23 295 -23 182 0 216 3 300 24 163 41
310 105 440 192 63 43 1091 873 1180 953 109 98 183 209 231 346 41 117 52
201 46 346 -6 146 -25 223 -86 349 -76 159 -101 182 -722 686 -314 255 -596
483 -627 506 -131 98 -346 186 -531 217 -116 20 -353 20 -470 0z"/>
</g>
</svg>
