<svg version="1.0" xmlns="http://www.w3.org/2000/svg"
width="512.000000pt" height="512.000000pt" viewBox="0 0 512.000000 512.000000"
preserveAspectRatio="xMidYMid meet">
<metadata>
Created by potrace 1.16, written by Peter Selinger 2001-2019
</metadata>
<g transform="translate(0.000000,512.000000) scale(0.100000,-0.100000)"
fill="rgb(46, 162, 114)" stroke="none">
<path d="M2265 5109 c-487 -60 -923 -242 -1310 -548 -93 -73 -327 -307 -400
-400 -299 -380 -482 -816 -540 -1281 -20 -163 -20 -477 0 -640 127 -1031 891
-1902 1893 -2161 215 -55 337 -71 593 -76 343 -7 572 25 867 123 872 289 1524
1027 1707 1929 47 230 59 584 30 825 -144 1157 -1068 2081 -2225 2225 -135 16
-493 19 -615 4z m447 -1103 c99 -30 162 -69 243 -151 124 -123 169 -230 169
-400 0 -78 -5 -114 -23 -165 -142 -408 -640 -530 -940 -229 -134 135 -195 330
-158 505 25 117 70 198 162 289 98 99 185 144 325 169 42 7 172 -3 222 -18z
m100 -1296 c257 -53 460 -163 654 -355 158 -156 250 -303 319 -508 50 -148 65
-261 65 -477 0 -163 -2 -189 -19 -216 -41 -68 39 -64 -1271 -64 -1310 0 -1230
-4 -1271 64 -17 27 -19 53 -19 216 0 337 56 541 217 790 68 104 239 277 343
347 301 202 642 272 982 203z"/>
<path d="M2464 3760 c-54 -17 -128 -73 -161 -123 -43 -64 -56 -117 -51 -203 8
-114 65 -200 171 -256 35 -19 58 -23 137 -23 86 0 100 3 148 29 60 33 101 76
134 139 19 35 23 58 23 137 0 79 -4 102 -23 137 -33 63 -75 106 -134 138 -44
24 -67 29 -133 32 -44 1 -94 -2 -111 -7z"/>
<path d="M2369 2464 c-494 -89 -849 -527 -849 -1046 l0 -68 1042 0 1041 0 -6
118 c-3 64 -13 149 -21 187 -75 354 -326 642 -663 765 -162 58 -373 75 -544
44z"/>
</g>
          </svg>