<svg version="1.0" xmlns="http://www.w3.org/2000/svg"
 width="100%" height="100%" viewBox="0 0 512.000000 512.000000"
 preserveAspectRatio="xMidYMid meet">
<g transform="translate(0.000000,512.000000) scale(0.100000,-0.100000)"
fill="#000000" stroke="none">
<path d="M2240 5105 c-300 -39 -543 -112 -815 -245 -262 -128 -491 -296 -705
-516 -375 -386 -600 -833 -695 -1384 -26 -149 -32 -541 -11 -711 75 -592 332
-1109 757 -1524 206 -201 409 -345 654 -464 274 -134 526 -209 825 -247 134
-16 449 -19 588 -4 593 64 1133 327 1553 757 139 142 201 219 313 387 132 196
240 427 310 659 75 248 106 466 106 747 0 206 -14 355 -50 530 -137 659 -543
1250 -1115 1623 -323 210 -685 342 -1073 391 -149 19 -501 20 -642 1z m478
-1726 c58 -13 87 -33 108 -77 16 -33 18 -71 19 -377 0 -306 2 -343 18 -372 33
-61 71 -45 170 74 125 151 230 329 316 537 38 90 53 115 81 134 l34 23 318 -3
c303 -3 318 -4 345 -24 83 -62 11 -217 -283 -611 -194 -261 -221 -311 -194
-364 7 -13 90 -103 185 -199 167 -170 283 -311 311 -377 23 -54 18 -107 -14
-141 -42 -45 -84 -52 -322 -52 -391 1 -393 2 -661 287 -136 144 -184 169 -234
119 -27 -27 -40 -69 -65 -214 -27 -163 -50 -181 -240 -181 -267 -2 -463 56
-674 196 -261 174 -523 526 -795 1070 -181 362 -204 430 -161 473 19 19 33 20
288 20 356 -1 347 3 431 -195 85 -202 240 -454 343 -557 58 -60 85 -70 112
-43 34 34 41 94 41 350 0 218 -2 254 -17 282 -22 40 -61 68 -115 82 -61 17
-65 48 -11 97 39 36 69 47 153 55 98 9 454 1 513 -12z"/>
</g>
</svg>
